<svg width="282" height="270" viewBox="0 0 282 270" fill="none" xmlns="http://www.w3.org/2000/svg">
<path fill-rule="evenodd" clip-rule="evenodd" d="M184.387 9.92298C190.145 7.74126 196.107 12.6116 195.117 18.6897L189.35 54.1059C189.125 55.492 188.538 56.7943 187.65 57.8818L102.882 161.635C100.086 165.057 95.0464 165.564 91.6249 162.769L63.8362 140.065C60.4147 137.27 59.9071 132.23 62.7026 128.808L147.471 25.0549C148.359 23.9674 149.518 23.1329 150.831 22.6354L184.387 9.92298ZM87.1235 251.619C86.1373 257.694 92.0941 262.561 97.8508 260.383L131.384 247.698C132.699 247.2 133.859 246.365 134.749 245.277L219.414 141.649C222.209 138.228 221.702 133.188 218.28 130.392L190.492 107.689C187.07 104.893 182.03 105.401 179.235 108.822L94.5696 212.45C93.6802 213.538 93.0934 214.842 92.8681 216.23L87.1235 251.619Z" fill="url(#paint0_linear)"/>
<defs>
<linearGradient id="paint0_linear" x1="195.5" y1="3.38702e-06" x2="89" y2="270" gradientUnits="userSpaceOnUse">
<stop stop-color="#AFECE7"/>
<stop offset="1" stop-color="#AFCFEC"/>
</linearGradient>
</defs>
</svg>
