<svg width="375" height="141" viewBox="0 0 375 141" fill="none" xmlns="http://www.w3.org/2000/svg">
<g filter="url(#filter0_d)">
<path fill-rule="evenodd" clip-rule="evenodd" d="M187 95C205.787 95 221.824 83.2258 228.134 66.654C231.278 58.3959 238.163 51 247 51H359C367.837 51 375 58.1634 375 67V140C375 140.552 374.552 141 374 141H0.999995C0.44771 141 0 140.552 0 140V67C0 58.1634 7.16344 51 16 51H127C135.837 51 142.722 58.3959 145.866 66.654C152.176 83.2258 168.213 95 187 95Z" fill="#F7F9FF"/>
</g>
<defs>
<filter id="filter0_d" x="-50" y="0" width="475" height="190" filterUnits="userSpaceOnUse" color-interpolation-filters="sRGB">
<feFlood flood-opacity="0" result="BackgroundImageFix"/>
<feColorMatrix in="SourceAlpha" type="matrix" values="0 0 0 0 0 0 0 0 0 0 0 0 0 0 0 0 0 0 127 0"/>
<feOffset dy="-1"/>
<feGaussianBlur stdDeviation="25"/>
<feColorMatrix type="matrix" values="0 0 0 0 0.145098 0 0 0 0 0.156863 0 0 0 0 0.239216 0 0 0 0.1 0"/>
<feBlend mode="normal" in2="BackgroundImageFix" result="effect1_dropShadow"/>
<feBlend mode="normal" in="SourceGraphic" in2="effect1_dropShadow" result="shape"/>
</filter>
</defs>
</svg>
