<svg width="26" height="26" viewBox="0 0 26 26" fill="none" xmlns="http://www.w3.org/2000/svg">
<path d="M23.5625 12.6918C23.5557 12.565 23.5042 12.4448 23.4172 12.3524C23.3302 12.2601 23.2133 12.2014 23.0872 12.187L21.7852 11.9763C21.7266 11.9666 21.6727 11.9384 21.6315 11.8956C21.5903 11.8529 21.5641 11.798 21.5566 11.7391C21.5318 11.5791 21.5059 11.4131 21.4703 11.2557C21.4589 11.1984 21.4656 11.139 21.4895 11.0857C21.5135 11.0325 21.5534 10.988 21.6039 10.9586L22.7607 10.3162C22.8755 10.2577 22.9649 10.1589 23.0117 10.0388C23.0585 9.91868 23.0595 9.78553 23.0146 9.66469L22.814 9.11118C22.77 8.98993 22.6828 8.88916 22.5692 8.82817C22.4555 8.76717 22.3234 8.75023 22.198 8.78059L20.9006 9.0345C20.8425 9.04487 20.7827 9.03665 20.7297 9.01103C20.6766 8.98541 20.633 8.94368 20.605 8.8918C20.5293 8.75012 20.4471 8.6059 20.3613 8.46422C20.3301 8.41375 20.3155 8.35479 20.3195 8.2956C20.3235 8.23641 20.3459 8.17996 20.3836 8.13415L21.2469 7.1368C21.3346 7.04265 21.385 6.91977 21.3886 6.79116C21.3922 6.66255 21.3489 6.53702 21.2667 6.43805L20.8899 5.98559C20.8079 5.88628 20.692 5.82092 20.5646 5.80216C20.4372 5.78339 20.3074 5.81257 20.2003 5.88403L19.0643 6.56602C19.0139 6.5962 18.9552 6.60938 18.8968 6.60362C18.8383 6.59786 18.7833 6.57346 18.7398 6.53403C18.6144 6.42383 18.4859 6.3177 18.3656 6.21969C18.3194 6.18324 18.286 6.13302 18.2703 6.07631C18.2546 6.0196 18.2574 5.95936 18.2782 5.90434L18.7484 4.66528C18.7997 4.54705 18.8057 4.41414 18.7653 4.29178C18.725 4.16942 18.6411 4.06614 18.5296 4.00157L18.0172 3.70247C17.9056 3.63813 17.7742 3.61722 17.6482 3.64374C17.5222 3.67025 17.4104 3.74234 17.3342 3.84618L16.5039 4.88922C16.474 4.93456 16.4293 4.96808 16.3774 4.98402C16.3255 4.99996 16.2697 4.99732 16.2195 4.97657C16.1886 4.96387 15.9265 4.85672 15.7229 4.78868C15.667 4.77047 15.6185 4.73487 15.5843 4.68709C15.5501 4.6393 15.5321 4.58183 15.533 4.52309L15.5528 3.19922C15.5598 3.06996 15.5196 2.94254 15.4395 2.84084C15.3593 2.73914 15.2449 2.67013 15.1176 2.64672L14.5361 2.54516C14.4094 2.52328 14.2791 2.54813 14.1694 2.61509C14.0596 2.68206 13.9779 2.78659 13.9395 2.90926L13.5078 4.16915C13.4882 4.22507 13.4512 4.27325 13.4022 4.30661C13.3532 4.33996 13.2948 4.35675 13.2356 4.3545H12.7405C12.6817 4.3557 12.6241 4.33834 12.5758 4.30488C12.5274 4.27142 12.4909 4.22356 12.4714 4.16813L12.0418 2.91536C12.004 2.79179 11.9224 2.68624 11.8124 2.61847C11.7024 2.5507 11.5714 2.52536 11.4441 2.54719L10.8616 2.64876C10.7351 2.67197 10.6213 2.74031 10.5413 2.84108C10.4614 2.94185 10.4207 3.0682 10.4269 3.19669L10.4472 4.52512C10.4476 4.58475 10.4288 4.64291 10.3934 4.69094C10.3581 4.73898 10.3082 4.77433 10.2512 4.79172C10.1349 4.83692 9.88254 4.9334 9.76777 4.97606C9.66621 5.01262 9.55551 4.97251 9.46613 4.86942L8.64043 3.85379C8.56467 3.74932 8.45296 3.67654 8.32679 3.64945C8.20061 3.62236 8.06888 3.64287 7.95691 3.70704L7.44605 4.00309C7.33334 4.06779 7.24856 4.17191 7.20805 4.2954C7.16754 4.41888 7.17418 4.55299 7.22668 4.67188L7.6964 5.9079C7.71689 5.96303 7.71959 6.02321 7.7041 6.07996C7.68862 6.13671 7.65573 6.18717 7.61007 6.22426C7.48668 6.32583 7.36023 6.42739 7.23429 6.54012C7.19105 6.57924 7.13642 6.6035 7.0784 6.60935C7.02038 6.6152 6.96201 6.60233 6.91183 6.57262L5.78906 5.87743C5.68125 5.8073 5.55155 5.77892 5.4243 5.79762C5.29705 5.81632 5.181 5.88081 5.09792 5.97899L4.72265 6.43043C4.63929 6.52873 4.59512 6.65431 4.59859 6.78315C4.60205 6.91198 4.65292 7.03501 4.74144 7.12868L5.60878 8.12501C5.64728 8.1699 5.67028 8.226 5.6744 8.28499C5.67852 8.34399 5.66352 8.40274 5.63164 8.45254C5.5448 8.59067 5.46203 8.7359 5.38687 8.88114C5.35876 8.93338 5.31482 8.97538 5.26136 9.00111C5.2079 9.02683 5.14766 9.03497 5.08929 9.02434L3.79386 8.77399C3.66844 8.74372 3.53626 8.7607 3.42255 8.82167C3.30884 8.88265 3.22157 8.98335 3.17738 9.10458L2.97425 9.65708C2.92935 9.77807 2.9304 9.91133 2.9772 10.0316C3.024 10.1519 3.11329 10.2508 3.22816 10.3096L4.38496 10.952C4.43698 10.9807 4.47824 11.0256 4.50252 11.0798C4.5268 11.134 4.53277 11.1947 4.51953 11.2526L4.50734 11.3171C4.48093 11.4588 4.45656 11.5929 4.4332 11.7356C4.42512 11.7937 4.39887 11.8478 4.35819 11.8901C4.31751 11.9324 4.26449 11.9608 4.20671 11.9712L2.90214 12.1819C2.77456 12.1976 2.65705 12.2591 2.57154 12.3551C2.48603 12.4511 2.43839 12.5749 2.43749 12.7034V13.2915C2.43675 13.4205 2.48391 13.5452 2.56984 13.6415C2.65577 13.7377 2.77436 13.7987 2.90265 13.8125L4.20671 14.0227C4.26531 14.0323 4.31925 14.0605 4.36044 14.1033C4.40164 14.146 4.42788 14.201 4.43523 14.2599C4.46011 14.4204 4.48601 14.5859 4.52156 14.7433C4.53301 14.8006 4.5263 14.86 4.50235 14.9132C4.47841 14.9665 4.43843 15.011 4.388 15.0404L3.23171 15.6838C3.11685 15.7423 3.02751 15.8411 2.98069 15.9612C2.93388 16.0813 2.93285 16.2145 2.97781 16.3353L3.18093 16.8888C3.22502 17.01 3.3122 17.1107 3.42583 17.1717C3.53945 17.2327 3.67155 17.2497 3.79691 17.2194L5.09437 16.9681C5.15239 16.9575 5.21226 16.9657 5.26537 16.9913C5.31847 17.0169 5.36208 17.0588 5.38992 17.1107C5.46609 17.2529 5.54785 17.3966 5.63367 17.5383C5.66499 17.5888 5.67968 17.6477 5.67567 17.707C5.67166 17.7662 5.64915 17.8227 5.61132 17.8684L4.74804 18.8652C4.65932 18.9587 4.60777 19.0813 4.6031 19.2101C4.59842 19.3388 4.64094 19.4649 4.72265 19.5645L5.09894 20.017C5.18084 20.1164 5.29676 20.1818 5.42418 20.2006C5.55161 20.2193 5.68147 20.1901 5.78855 20.1185L6.92453 19.4365C6.97489 19.4064 7.03363 19.3932 7.09206 19.3989C7.15049 19.4047 7.20552 19.4291 7.24902 19.4685C7.37496 19.5787 7.50293 19.6848 7.62328 19.7829C7.66943 19.8193 7.70281 19.8695 7.71859 19.9262C7.73438 19.9829 7.73177 20.0431 7.71113 20.0982L7.24039 21.3373C7.18918 21.4555 7.18318 21.5884 7.22353 21.7108C7.26388 21.8331 7.34776 21.9364 7.45925 22.001L7.97265 22.2975C8.08416 22.3619 8.21551 22.3829 8.34153 22.3565C8.46756 22.3301 8.5794 22.2581 8.65566 22.1543L9.49609 21.1209C9.56719 21.0331 9.6789 20.994 9.76168 21.0275C9.9384 21.1006 10.0567 21.1418 10.2664 21.2118C10.3223 21.2301 10.3709 21.2657 10.4051 21.3135C10.4394 21.3612 10.4575 21.4187 10.4569 21.4774L10.4366 22.8003C10.4297 22.9295 10.4701 23.0568 10.5501 23.1585C10.6302 23.2601 10.7445 23.3292 10.8718 23.3528L11.4532 23.4543C11.5799 23.4764 11.7103 23.4517 11.8201 23.3847C11.9299 23.3177 12.0116 23.213 12.0499 23.0902L12.4815 21.8324C12.5011 21.7764 12.538 21.7282 12.5871 21.6948C12.6361 21.6615 12.6945 21.6447 12.7537 21.647H13.2488C13.3076 21.6458 13.3653 21.6631 13.4136 21.6966C13.462 21.73 13.4985 21.7779 13.518 21.8334L13.9481 23.0862C13.9814 23.1949 14.0487 23.2901 14.1401 23.3579C14.2315 23.4256 14.3422 23.4622 14.4559 23.4625C14.4862 23.4625 14.5165 23.4598 14.5463 23.4543L15.1288 23.3528C15.2553 23.3296 15.3691 23.2612 15.449 23.1605C15.5289 23.0597 15.5696 22.9333 15.5634 22.8048L15.5431 21.4764C15.5427 21.4179 15.561 21.3607 15.5952 21.3133C15.6294 21.2658 15.6779 21.2305 15.7336 21.2123C15.9286 21.1468 16.0657 21.094 16.186 21.0473L16.2165 21.0356C16.3739 20.9813 16.4501 21.0473 16.4943 21.1022L17.3448 22.1498C17.4211 22.2534 17.5328 22.3253 17.6587 22.3517C17.7847 22.3781 17.9159 22.3572 18.0273 22.293L18.5387 21.9969C18.6506 21.9323 18.7347 21.8288 18.7751 21.7061C18.8155 21.5834 18.8092 21.4501 18.7576 21.3317L18.2884 20.0957C18.2677 20.0406 18.2648 19.9804 18.2802 19.9236C18.2956 19.8669 18.3285 19.8164 18.3742 19.7793C18.4976 19.6777 18.624 19.5762 18.75 19.4634C18.7935 19.4242 18.8484 19.4 18.9068 19.3943C18.9651 19.3886 19.0237 19.4018 19.0739 19.432L20.2109 20.1124C20.3187 20.1827 20.4484 20.2111 20.5757 20.1924C20.703 20.1737 20.8191 20.1091 20.9021 20.0109L21.2779 19.5589C21.3612 19.4606 21.4054 19.335 21.4019 19.2062C21.3985 19.0774 21.3476 18.9543 21.2591 18.8607L20.3927 17.8618C20.3542 17.8169 20.3312 17.7608 20.3271 17.7018C20.323 17.6428 20.338 17.5841 20.3699 17.5343C20.4567 17.3966 20.5395 17.2514 20.6147 17.1057C20.6429 17.0535 20.6868 17.0116 20.7403 16.9859C20.7937 16.9602 20.8539 16.952 20.9122 16.9625L22.2061 17.2148C22.3316 17.2451 22.4637 17.2281 22.5774 17.1672C22.6912 17.1062 22.7784 17.0055 22.8226 16.8843L23.0232 16.3318C23.0681 16.2108 23.067 16.0777 23.0202 15.9575C22.9734 15.8373 22.8841 15.7385 22.7693 15.6797L21.6115 15.0363C21.5602 15.0073 21.5196 14.9626 21.4957 14.9087C21.4719 14.8548 21.466 14.7947 21.479 14.7372L21.4911 14.6727C21.5175 14.5311 21.5419 14.397 21.5653 14.2543C21.5734 14.1962 21.5996 14.1421 21.6403 14.0997C21.681 14.0574 21.734 14.029 21.7918 14.0187L23.0963 13.8084C23.2242 13.793 23.3421 13.7315 23.4279 13.6354C23.5137 13.5393 23.5616 13.4152 23.5625 13.2864V12.6918ZM9.21933 17.4652C9.15605 17.5752 9.06756 17.6687 8.96114 17.7379C8.85472 17.8071 8.7334 17.85 8.60715 17.8632C8.4809 17.8764 8.35332 17.8594 8.2349 17.8137C8.11648 17.768 8.01059 17.6949 7.92593 17.6003C6.7819 16.3353 6.15023 14.6895 6.15417 12.9839C6.15812 11.2784 6.7974 9.63551 7.94726 8.37586C8.03236 8.28131 8.1387 8.20834 8.25753 8.16295C8.37635 8.11755 8.50427 8.10104 8.63072 8.11478C8.75718 8.12852 8.87857 8.17211 8.98488 8.24196C9.09119 8.3118 9.17938 8.40591 9.24219 8.51653L11.5604 12.5968C11.63 12.7185 11.6666 12.8563 11.6666 12.9964C11.6666 13.1366 11.63 13.2744 11.5604 13.3961L9.21933 17.4652ZM13 19.8611C12.5168 19.8612 12.0349 19.8101 11.5624 19.7087C11.4393 19.6812 11.3244 19.6251 11.2271 19.5449C11.1297 19.4648 11.0526 19.3628 11.002 19.2472C10.9514 19.1317 10.9288 19.0059 10.9359 18.88C10.943 18.754 10.9796 18.6316 11.0429 18.5225L13.3788 14.46C13.4491 14.3376 13.5504 14.2359 13.6726 14.1651C13.7947 14.0944 13.9334 14.0572 14.0745 14.0573H18.7535C18.8796 14.0571 19.0039 14.0866 19.1164 14.1434C19.2289 14.2002 19.3264 14.2827 19.4011 14.3842C19.4758 14.4858 19.5255 14.6035 19.5462 14.7278C19.5669 14.8521 19.558 14.9796 19.5203 15.0998C18.6322 17.8582 16.0469 19.8611 13 19.8611ZM13.3814 11.538L11.0703 7.4684C11.0077 7.35912 10.9716 7.23664 10.9651 7.11085C10.9586 6.98506 10.9817 6.8595 11.0327 6.74432C11.0837 6.62914 11.161 6.52756 11.2585 6.4478C11.356 6.36804 11.4709 6.31234 11.5939 6.2852C12.0562 6.18776 12.5275 6.13875 13 6.13895C16.0469 6.13895 18.6322 8.14176 19.5188 10.9017C19.5565 11.022 19.5654 11.1494 19.5447 11.2738C19.524 11.3981 19.4743 11.5158 19.3996 11.6173C19.3249 11.7188 19.2274 11.8014 19.1149 11.8582C19.0023 11.915 18.878 11.9445 18.752 11.9443H14.0801C13.9381 11.9445 13.7985 11.9071 13.6758 11.8357C13.553 11.7643 13.4514 11.6616 13.3814 11.538Z"/>
</svg>
