<svg width="129" height="221" viewBox="0 0 129 221" fill="none" xmlns="http://www.w3.org/2000/svg">
<g clip-path="url(#clip0)">
<path d="M-21.2805 132.226C-25.0287 129.118 -27.1575 124.472 -27.0644 119.604L-26.4514 87.5501C-26.3583 82.6817 -24.0534 78.1208 -20.1891 75.1582L5.25368 55.6523C9.11793 52.6898 14.1209 51.6481 18.8465 52.8221L49.9601 60.5524C54.6857 61.7265 58.6194 64.9885 60.6478 69.4151L74.0031 98.5605C76.0315 102.987 75.9338 108.096 73.7376 112.442L59.2777 141.056C57.0816 145.401 53.026 148.511 48.259 149.503L16.8725 156.038C12.1056 157.031 7.14605 155.799 3.3979 152.69L-21.2805 132.226Z" fill="url(#paint0_linear)"/>
</g>
<defs>
<linearGradient id="paint0_linear" x1="22.4914" y1="160.109" x2="28.1064" y2="62.7594" gradientUnits="userSpaceOnUse">
<stop stop-color="#AFECE7"/>
<stop offset="0.453125" stop-color="#AFDFE9"/>
<stop offset="1" stop-color="#AFCFEC"/>
</linearGradient>
<clipPath id="clip0">
<rect width="129" height="221" fill="white"/>
</clipPath>
</defs>
</svg>
